<svg xmlns="http://www.w3.org/2000/svg" width="209" height="40" fill="#f1f1f1" xmlns:v="https://vecta.io/nano"><path d="M20 0C8.963 0 0 8.963 0 20s8.963 20 20 20 20-8.963 20-20S31.037 0 20 0zm0 35.111C11.63 35.111 4.815 28.37 4.815 20A15.21 15.21 0 0 1 20 4.815 15.21 15.21 0 0 1 35.185 20C35.111 28.37 28.37 35.111 20 35.111z"/><g><path d="M17.556 22.889c1.407 1.259 3.481 1.259 4.815 0v-5.778c-1.407-1.259-3.482-1.259-4.815 0v5.778zm2.445-13.185c-2.741 0-5.333 1.111-7.259 3.037l3.407 3.407a5.41 5.41 0 0 1 7.704 0l3.407-3.407c-1.926-1.926-4.518-3.037-7.259-3.037z"/><path d="M23.852 23.852a5.41 5.41 0 0 1-7.704 0l-3.407 3.407c4 4 10.519 4 14.519 0l-3.407-3.407zM19.996 40c.148-2.37-1.259-4.519-3.556-5.259-5.926-1.482-10.37-6.296-11.333-12.296h10.074c-.815-1.556-.815-3.333 0-4.815H5.107c1.334-8.297 9.037-13.852 17.26-12.593a14.83 14.83 0 0 1 5.481 2c2.074 1.259 4.815.741 6.296-1.185-7.778-7.778-20.444-7.778-28.296 0s-7.852 20.444 0 28.296C9.626 37.852 14.663 40 19.996 40z"/></g></svg>